<?xml version="1.0" standalone="no"?>
<!DOCTYPE svg PUBLIC "-//W3C//DTD SVG 20010904//EN"
 "http://www.w3.org/TR/2001/REC-SVG-20010904/DTD/svg10.dtd">
<svg version="1.0" xmlns="http://www.w3.org/2000/svg"
 width="512.000000pt" height="512.000000pt" viewBox="0 0 512.000000 512.000000"
 preserveAspectRatio="xMidYMid meet">
<metadata>
Created by potrace 1.11, written by Peter Selinger 2001-2013
</metadata>
<g transform="translate(0.000000,512.000000) scale(0.100000,-0.100000)"
fill="#000000" stroke="none">
<path d="M0 2555 l0 -2555 2555 0 2555 0 0 2555 0 2555 -2555 0 -2555 0 0
-2555z m2190 955 l0 -800 -800 0 -800 0 0 800 0 800 800 0 800 0 0 -800z
m2380 0 l0 -800 -800 0 -800 0 0 800 0 800 800 0 800 0 0 -800z m-3950 -1684
c0 -16 -14 -36 -25 -36 -28 0 -33 -32 -40 -245 l-6 -220 128 250 128 250 58 3
57 3 1 -183 c1 -101 1 -217 -1 -258 -1 -41 0 -73 3 -70 18 19 207 409 207 427
0 13 -9 28 -20 35 -11 7 -20 21 -20 30 0 16 12 18 110 18 123 0 133 -7 76 -52
-24 -19 -80 -112 -201 -332 l-167 -306 -64 0 -64 0 -1 238 0 237 -120 -237
-119 -238 -65 0 -65 0 -1 153 c0 83 -4 223 -7 310 -7 148 -9 160 -30 177 -12
10 -22 25 -22 34 0 14 18 16 135 16 74 0 135 -2 135 -4z m1221 -73 l-17 -78
-37 -3 c-35 -3 -37 -2 -37 27 0 53 -29 71 -114 71 l-74 0 -22 -97 c-12 -54
-24 -108 -27 -120 -5 -21 -2 -23 42 -23 41 0 51 4 80 36 24 26 40 35 58 32
l24 -3 -18 -80 c-11 -44 -21 -90 -24 -102 -4 -18 -12 -23 -35 -23 -26 0 -30 4
-30 28 0 39 -17 52 -70 52 l-45 0 -28 -127 c-15 -71 -27 -131 -27 -135 0 -15
130 -8 160 7 16 8 41 35 56 60 23 39 30 45 60 45 40 0 40 0 13 -102 l-21 -78
-244 0 c-147 0 -244 4 -244 9 0 6 14 23 31 39 29 27 35 45 80 248 68 303 71
322 48 345 -11 11 -19 26 -19 34 0 13 34 15 249 15 l249 0 -17 -77z m470 75
c0 -2 6 -138 13 -304 13 -300 20 -344 52 -344 9 0 14 -7 12 -17 -3 -16 -19
-18 -136 -21 -114 -2 -132 0 -132 13 0 9 11 20 24 24 30 12 36 29 36 107 l0
64 -99 0 -100 0 -25 -54 c-14 -30 -26 -61 -26 -70 0 -25 12 -46 26 -46 8 0 14
-9 14 -20 0 -19 -7 -20 -110 -20 -123 0 -133 7 -76 52 21 17 69 90 136 210 57
101 134 238 172 306 l69 122 75 0 c41 0 74 -1 75 -2z m729 -5 c0 -5 -8 -45
-17 -90 l-17 -83 -38 0 c-38 0 -38 0 -38 40 0 49 -27 80 -69 80 -35 0 -26 28
-96 -293 -57 -263 -59 -297 -20 -297 8 0 15 -9 15 -20 0 -19 -7 -20 -139 -20
-134 0 -139 1 -134 20 3 11 11 20 18 20 32 0 48 47 105 301 33 145 60 270 60
278 0 10 -10 12 -41 8 -45 -6 -81 -34 -99 -78 -11 -25 -18 -29 -50 -29 l-38 0
14 63 c8 34 16 72 19 85 l5 22 280 0 c154 0 280 -3 280 -7z m340 -6 c0 -7 -13
-23 -29 -35 -25 -18 -33 -36 -55 -132 -14 -61 -26 -113 -26 -115 0 -3 47 -5
105 -5 100 0 105 1 110 23 29 127 35 157 35 190 0 31 -4 40 -20 44 -13 3 -20
12 -18 22 3 14 23 16 135 19 127 2 131 2 126 -17 -3 -11 -13 -23 -23 -26 -9
-3 -22 -17 -29 -31 -12 -28 -121 -507 -121 -536 0 -10 9 -23 20 -30 11 -7 20
-21 20 -30 0 -16 -13 -18 -130 -18 -88 0 -130 4 -130 11 0 6 13 23 29 38 23
22 33 47 55 139 14 62 26 119 26 127 0 12 -19 15 -103 15 l-102 0 -23 -103
c-28 -130 -29 -173 -2 -187 11 -6 17 -16 14 -25 -5 -12 -30 -15 -135 -15 -75
0 -129 4 -129 9 0 6 14 23 31 39 29 27 35 45 80 248 68 303 71 322 48 345 -11
11 -19 26 -19 34 0 13 21 15 130 15 101 0 130 -3 130 -13z m941 -64 l-17 -78
-37 -3 c-35 -3 -37 -2 -37 27 0 53 -29 71 -114 71 l-74 0 -22 -97 c-12 -54
-24 -108 -27 -120 -5 -21 -2 -23 42 -23 41 0 51 4 80 36 24 26 40 35 58 32
l24 -3 -18 -80 c-11 -44 -21 -90 -24 -102 -4 -18 -12 -23 -35 -23 -26 0 -30 4
-30 28 0 39 -17 52 -70 52 l-45 0 -28 -127 c-15 -71 -27 -131 -27 -135 0 -15
130 -8 160 7 16 8 41 35 56 60 23 39 30 45 60 45 40 0 40 0 13 -102 l-21 -78
-244 0 c-147 0 -244 4 -244 9 0 6 14 23 31 39 29 27 35 45 80 248 68 303 71
322 48 345 -11 11 -19 26 -19 34 0 13 34 15 249 15 l249 0 -17 -77z m524 51
c22 -12 48 -35 58 -53 25 -42 24 -118 -3 -170 -21 -43 -86 -97 -127 -107 -29
-8 -28 -8 1 -47 16 -20 33 -67 45 -122 15 -69 26 -95 45 -112 50 -43 36 -53
-69 -53 l-94 0 -10 38 c-6 20 -19 80 -30 132 -22 101 -41 130 -86 130 -26 0
-26 -1 -50 -103 -22 -98 -20 -148 5 -154 11 -3 20 -14 20 -24 0 -18 -9 -19
-135 -19 -79 0 -135 4 -135 9 0 6 14 23 31 39 29 27 35 45 80 248 68 303 71
322 48 345 -11 11 -19 26 -19 35 0 13 23 15 193 12 172 -3 196 -5 232 -24z"/>
<path d="M1028 3931 c-4 -25 0 -30 22 -34 14 -3 37 -14 49 -24 l23 -19 -61
-384 c-34 -212 -64 -391 -66 -398 -3 -7 -26 -22 -52 -34 -27 -11 -49 -21 -50
-22 -1 0 -5 -14 -9 -30 l-7 -29 244 6 c273 5 346 18 462 79 118 62 213 189
253 338 21 78 25 265 7 326 -18 58 -67 127 -113 159 -101 70 -237 95 -521 95
l-177 0 -4 -29z m479 -85 c95 -45 131 -136 120 -306 -11 -170 -58 -315 -126
-393 -78 -88 -260 -131 -276 -64 -5 18 58 446 106 725 l11 62 57 0 c38 0 72
-8 108 -24z"/>
<path d="M3780 3970 c-109 -23 -213 -102 -256 -194 -28 -59 -33 -166 -10 -219
20 -49 83 -103 176 -152 103 -54 110 -60 144 -109 20 -31 26 -51 26 -95 0 -74
-24 -119 -81 -149 -50 -27 -114 -26 -169 3 -42 22 -53 55 -45 141 4 42 3 74
-2 77 -6 4 -27 9 -49 12 l-39 7 -37 -134 c-26 -96 -33 -135 -25 -141 7 -4 46
-18 87 -31 204 -65 399 -32 505 86 54 60 79 130 79 223 0 125 -56 200 -202
275 -145 74 -172 103 -172 187 0 41 5 58 25 82 55 65 178 79 231 26 24 -24 26
-33 28 -145 l1 -45 40 -3 c22 -1 46 2 53 6 8 5 22 54 33 108 10 54 21 109 24
120 4 20 -3 24 -73 43 -90 24 -228 34 -292 21z"/>
<path d="M2095 1558 c-39 -72 -71 -135 -73 -139 -2 -5 33 -9 78 -9 l82 0 -7
138 c-4 75 -8 138 -9 139 0 1 -33 -57 -71 -129z"/>
<path d="M4605 1693 c-9 -43 -23 -104 -30 -137 l-14 -59 56 6 c59 6 93 25 126
69 21 28 33 102 23 142 -8 32 -53 56 -104 56 l-40 0 -17 -77z"/>
</g>
</svg>
